<svg xmlns="http://www.w3.org/2000/svg" width="1200" height="470" viewBox="0 0 1200 470"><defs><marker id="m2d6cdf" viewBox="0 0 10 10" refX="8.5" refY="5" markerWidth="7" markerHeight="7" orient="auto-start-reverse"><path d="M 0 1 L 9 5 L 0 9 z" fill="#2D6CDF"/></marker><marker id="m8494ab" viewBox="0 0 10 10" refX="8.5" refY="5" markerWidth="7" markerHeight="7" orient="auto-start-reverse"><path d="M 0 1 L 9 5 L 0 9 z" fill="#8494AB"/></marker></defs><rect x="0" y="0" width="1200" height="470" fill="#FFFFFF"/><path d="M 60 110 L 315 110 L 325 120 L 325 195 L 60 195 Z" fill="#FFFFFF" stroke="#DD8F1F" stroke-width="1.5"/><path d="M 315 110 L 315 120 L 325 120" fill="none" stroke="#DD8F1F" stroke-width="1.2"/><text x="69.0" y="129.0" font-family="'JetBrains Mono', Menlo, Consolas, monospace" font-size="11" font-weight="600" fill="#16243B" text-anchor="start">metrics/gross-margin.md</text><text x="74.0" y="154.0" font-family="'JetBrains Mono', Menlo, Consolas, monospace" font-size="10.5" font-weight="400" fill="#2D6CDF" text-anchor="start">→ ./revenue.md</text><text x="74.0" y="171.0" font-family="'JetBrains Mono', Menlo, Consolas, monospace" font-size="10.5" font-weight="400" fill="#2D6CDF" text-anchor="start">→ ../computations/gm-period.md</text><text x="74.0" y="188.0" font-family="'JetBrains Mono', Menlo, Consolas, monospace" font-size="10.5" font-weight="400" fill="#2D6CDF" text-anchor="start">→ ./gross-margin-legacy.md</text><path d="M 60 205 L 315 205 L 325 215 L 325 256 L 60 256 Z" fill="#FFFFFF" stroke="#DD8F1F" stroke-width="1.5"/><path d="M 315 205 L 315 215 L 325 215" fill="none" stroke="#DD8F1F" stroke-width="1.2"/><text x="69.0" y="224.0" font-family="'JetBrains Mono', Menlo, Consolas, monospace" font-size="11" font-weight="600" fill="#16243B" text-anchor="start">metrics/revenue.md</text><text x="74.0" y="249.0" font-family="'JetBrains Mono', Menlo, Consolas, monospace" font-size="10.5" font-weight="400" fill="#2D6CDF" text-anchor="start">→ ../computations/revenue-ytd.md</text><path d="M 60 275 L 315 275 L 325 285 L 325 343 L 60 343 Z" fill="#FFFFFF" stroke="#DD8F1F" stroke-width="1.5"/><path d="M 315 275 L 315 285 L 325 285" fill="none" stroke="#DD8F1F" stroke-width="1.2"/><text x="69.0" y="294.0" font-family="'JetBrains Mono', Menlo, Consolas, monospace" font-size="11" font-weight="600" fill="#16243B" text-anchor="start">computations/gm-period.md</text><text x="74.0" y="319.0" font-family="'JetBrains Mono', Menlo, Consolas, monospace" font-size="10.5" font-weight="400" fill="#2D6CDF" text-anchor="start">→ skills/run-on-bq.md</text><text x="74.0" y="336.0" font-family="'JetBrains Mono', Menlo, Consolas, monospace" font-size="10.5" font-weight="400" fill="#2D6CDF" text-anchor="start">sources: policies/margin-…md</text><path d="M 60 368 L 315 368 L 325 378 L 325 402 L 60 402 Z" fill="#FFFFFF" stroke="#DD8F1F" stroke-width="1.5"/><path d="M 315 368 L 315 378 L 325 378" fill="none" stroke="#DD8F1F" stroke-width="1.2"/><text x="69.0" y="387.0" font-family="'JetBrains Mono', Menlo, Consolas, monospace" font-size="11" font-weight="600" fill="#16243B" text-anchor="start">policies/margin-standard.md</text><path d="M 360.0 265.0 L 445.0 265.0" fill="none" stroke="#2D6CDF" stroke-width="3" marker-end="url(#m2d6cdf)"/><text x="402.0" y="245.0" font-family="Inter, 'Segoe UI', Helvetica, Arial, sans-serif" font-size="11.5" font-weight="400" fill="#5B6B82" text-anchor="middle">same bytes</text><path d="M 629.2 143.1 L 756.9 112.8" fill="none" stroke="#8494AB" stroke-width="1.7" marker-end="url(#m8494ab)"/><rect x="667.4" y="112.5" width="51.3" height="17.0" rx="4" fill="#FFFFFF" stroke="none" stroke-width="1.4" opacity="0.92"/><text x="693.1" y="124.2" font-family="'JetBrains Mono', Menlo, Consolas, monospace" font-size="9" font-weight="600" fill="#8494AB" text-anchor="middle">LINKS_TO</text><path d="M 629.1 157.3 L 827.0 206.8" fill="none" stroke="#8494AB" stroke-width="1.7" marker-end="url(#m8494ab)"/><rect x="702.4" y="166.5" width="51.3" height="17.0" rx="4" fill="#FFFFFF" stroke="none" stroke-width="1.4" opacity="0.92"/><text x="728.1" y="178.3" font-family="'JetBrains Mono', Menlo, Consolas, monospace" font-size="9" font-weight="600" fill="#8494AB" text-anchor="middle">LINKS_TO</text><path d="M 602.0 179.9 Q 624.8 221.7 607.7 266.1" fill="none" stroke="#8494AB" stroke-width="1.7" marker-end="url(#m8494ab)"/><rect x="589.6" y="206.8" width="51.3" height="17.0" rx="4" fill="#FFFFFF" stroke="none" stroke-width="1.4" opacity="0.92"/><text x="615.2" y="218.6" font-family="'JetBrains Mono', Menlo, Consolas, monospace" font-size="9" font-weight="600" fill="#8494AB" text-anchor="middle">LINKS_TO</text><path d="M 608.0 270.1 Q 585.2 228.3 602.3 183.9" fill="none" stroke="#8494AB" stroke-width="1.7" marker-end="url(#m8494ab)"/><path d="M 820.0 105.8 L 941.0 109.1" fill="none" stroke="#8494AB" stroke-width="1.7" marker-end="url(#m8494ab)"/><rect x="854.9" y="91.9" width="51.3" height="17.0" rx="4" fill="#FFFFFF" stroke="none" stroke-width="1.4" opacity="0.92"/><text x="880.5" y="103.7" font-family="'JetBrains Mono', Menlo, Consolas, monospace" font-size="9" font-weight="600" fill="#8494AB" text-anchor="middle">LINKS_TO</text><path d="M 889.6 219.7 L 1046.4 244.7" fill="none" stroke="#8494AB" stroke-width="1.7" marker-end="url(#m8494ab)"/><rect x="934.3" y="216.7" width="67.5" height="17.0" rx="4" fill="#FFFFFF" stroke="none" stroke-width="1.4" opacity="0.92"/><text x="968.0" y="228.4" font-family="'JetBrains Mono', Menlo, Consolas, monospace" font-size="9" font-weight="600" fill="#8494AB" text-anchor="middle">EXECUTED_BY</text><path d="M 860.0 245.0 Q 834.0 293.0 860.0 341.0" fill="none" stroke="#8494AB" stroke-width="1.7" marker-end="url(#m8494ab)"/><rect x="810.0" y="277.5" width="72.9" height="17.0" rx="4" fill="#FFFFFF" stroke="none" stroke-width="1.4" opacity="0.92"/><text x="846.5" y="289.2" font-family="'JetBrains Mono', Menlo, Consolas, monospace" font-size="9" font-weight="600" fill="#8494AB" text-anchor="middle">DERIVES_FROM</text><path d="M 993.0 134.0 Q 1015.1 186.8 1059.6 222.8" fill="none" stroke="#8494AB" stroke-width="1.7" marker-end="url(#m8494ab)"/><rect x="986.7" y="167.3" width="67.5" height="17.0" rx="4" fill="#FFFFFF" stroke="none" stroke-width="1.4" opacity="0.92"/><text x="1020.5" y="179.0" font-family="'JetBrains Mono', Menlo, Consolas, monospace" font-size="9" font-weight="600" fill="#8494AB" text-anchor="middle">EXECUTED_BY</text><circle cx="600.0" cy="150.0" r="27" fill="#2D6CDF" stroke="#FFFFFF" stroke-width="2.5"/><text x="600.0" y="192.5" font-family="Inter, 'Segoe UI', Helvetica, Arial, sans-serif" font-size="11.5" font-weight="600" fill="#16243B" text-anchor="middle">gross-margin</text><circle cx="790.0" cy="105.0" r="27" fill="#2D6CDF" stroke="#FFFFFF" stroke-width="2.5"/><text x="790.0" y="147.5" font-family="Inter, 'Segoe UI', Helvetica, Arial, sans-serif" font-size="11.5" font-weight="600" fill="#16243B" text-anchor="middle">revenue</text><circle cx="610.0" cy="300.0" r="27" fill="#D64545" stroke="#FFFFFF" stroke-width="2.5"/><text x="610.0" y="342.5" font-family="Inter, 'Segoe UI', Helvetica, Arial, sans-serif" font-size="11.5" font-weight="600" fill="#16243B" text-anchor="middle">gross-margin-legacy</text><text x="610.0" y="357.0" font-family="Inter, 'Segoe UI', Helvetica, Arial, sans-serif" font-size="9.5" font-weight="400" fill="#5B6B82" text-anchor="middle">status: deprecated</text><circle cx="860.0" cy="215.0" r="27" fill="#2D6CDF" stroke="#FFFFFF" stroke-width="2.5"/><text x="860.0" y="257.5" font-family="Inter, 'Segoe UI', Helvetica, Arial, sans-serif" font-size="11.5" font-weight="600" fill="#16243B" text-anchor="middle">gm-period</text><text x="860.0" y="272.0" font-family="Inter, 'Segoe UI', Helvetica, Arial, sans-serif" font-size="9.5" font-weight="400" fill="#5B6B82" text-anchor="middle">Attested Computation</text><circle cx="975.0" cy="110.0" r="27" fill="#2D6CDF" stroke="#FFFFFF" stroke-width="2.5"/><text x="975.0" y="152.5" font-family="Inter, 'Segoe UI', Helvetica, Arial, sans-serif" font-size="11.5" font-weight="600" fill="#16243B" text-anchor="middle">revenue-ytd</text><circle cx="1080.0" cy="250.0" r="27" fill="#2D6CDF" stroke="#FFFFFF" stroke-width="2.5"/><text x="1080.0" y="292.5" font-family="Inter, 'Segoe UI', Helvetica, Arial, sans-serif" font-size="11.5" font-weight="600" fill="#16243B" text-anchor="middle">run-on-bq</text><text x="1080.0" y="307.0" font-family="Inter, 'Segoe UI', Helvetica, Arial, sans-serif" font-size="9.5" font-weight="400" fill="#5B6B82" text-anchor="middle">Skill</text><circle cx="860.0" cy="375.0" r="27" fill="#7C5CD6" stroke="#FFFFFF" stroke-width="2.5"/><text x="860.0" y="417.5" font-family="Inter, 'Segoe UI', Helvetica, Arial, sans-serif" font-size="11.5" font-weight="600" fill="#16243B" text-anchor="middle">margin-standard</text><text x="860.0" y="432.0" font-family="Inter, 'Segoe UI', Helvetica, Arial, sans-serif" font-size="9.5" font-weight="400" fill="#5B6B82" text-anchor="middle">Policy</text><text x="630.0" y="452.0" font-family="Inter, 'Segoe UI', Helvetica, Arial, sans-serif" font-size="13" font-weight="400" fill="#5B6B82" text-anchor="middle">nothing is missing from the files view — what&#x27;s missing is the tooling: traversal, indexes, aggregation, retrieval</text></svg>